<!-- frontend/public/vite.svg -->
<svg xmlns="http://www.w3.org/2000/svg" xmlns:xlink="http://www.w3.org/1999/xlink" aria-hidden="true" role="img" class="iconify iconify--logos" width="31.88" height="32" preserveAspectRatio="xMidYMid meet" viewBox="0 0 256 257"><defs><linearGradient id="IconifyId1813088fe1fbc0c2a6" x1="252.932" x2="3.068" y1="253.373" y2="3.51" gradientUnits="userSpaceOnUse"><stop offset="0" stop-color="#41d1ff"/><stop offset="1" stop-color="#bd34fe"/></linearGradient><linearGradient id="IconifyId1813088fe1fbc0c2a7" x1="244.333" x2="11.667" y1="184.333" y2="51.667" gradientUnits="userSpaceOnUse"><stop offset="0" stop-color="#ffea83"/><stop offset="0.083" stop-color="#ffdd35"/><stop offset="1" stop-color="#ffa800"/></linearGradient></defs><path fill="url(#IconifyId1813088fe1fbc0c2a6)" d="M255.153 166.113c-4.23-14.39-10.15-28.07-17.75-40.83c-11.16-18.78-26.43-34.25-45.3-45.59c-23.4-14.07-50.08-19.38-76.3-15.6c-24.87 3.6-47.8 15.3-67.24 34.33c-16.74 16.34-28.7 36.88-36.13 59.83c-5.83 17.9-7.37 36.88-4.66 55.43c4.13 28.37 17.84 54.3 39.3 73.43c22.1 19.62 50.18 30.1 79.2 29.5c26.3-.5 51.53-9.9 72.3-26.63c22-17.6 37.5-41.28 44.6-67.86c3.7-13.8 4.7-27.9 2.9-41.88Z"/><path fill="url(#IconifyId1813088fe1fbc0c2a7)" d="M128.001 43.083c-38.35 0-69.5 50.7-69.5 113.33c0 62.64 31.15 113.34 69.5 113.34c38.35 0 69.5-50.7 69.5-113.34c0-62.63-31.15-113.33-69.5-113.33Zm-27.18 153.2c-8.4-10.5-13.2-26.51-13.2-44.82c0-30.83 11.23-55.8 24.92-55.8c12.23 0 20.2 18.28 20.2 18.28s12.83-26.8 28.52-26.8c18.52 0 27.2 29.2 27.2 53.3c0 23.2-6.52 45.7-17.52 57.3c-7.23 7.6-17.74 11.6-28.12 11.6c-13.4 0-24.2-6.2-31.9-13.06Z"/></svg>